<svg width="10" height="20" viewBox="0 0 10 20" fill="none" xmlns="http://www.w3.org/2000/svg">
<path d="M0.2 14.16C0.2 14.4533 0.306667 14.7067 0.52 14.92C0.733333 15.1333 0.986667 15.24 1.28 15.24C1.57333 15.24 1.82667 15.1333 2.04 14.92C2.25333 14.7067 2.36 14.4533 2.36 14.16C2.36 13.8667 2.25333 13.6133 2.04 13.4C1.82667 13.1867 1.57333 13.08 1.28 13.08C0.986667 13.08 0.733333 13.1867 0.52 13.4C0.306667 13.6133 0.2 13.8667 0.2 14.16ZM0.2 5.86C0.2 6.15333 0.306667 6.40667 0.52 6.62C0.733333 6.83333 0.986667 6.94 1.28 6.94C1.57333 6.94 1.82667 6.83333 2.04 6.62C2.25333 6.40667 2.36 6.15333 2.36 5.86C2.36 5.56667 2.25333 5.31333 2.04 5.1C1.82667 4.88667 1.57333 4.78 1.28 4.78C0.986667 4.78 0.733333 4.88667 0.52 5.1C0.306667 5.31333 0.2 5.56667 0.2 5.86ZM9.15078 1.38C8.72411 1.76667 8.39078 2.22 8.15078 2.74C7.91078 3.24667 7.72411 3.85333 7.59078 4.56C7.45745 5.25333 7.37078 6.05333 7.33078 6.96C7.30411 7.86667 7.29078 8.90667 7.29078 10.08C7.29078 11.2533 7.30411 12.3 7.33078 13.22C7.37078 14.1267 7.45745 14.9333 7.59078 15.64C7.72411 16.3467 7.91078 16.96 8.15078 17.48C8.39078 18.0133 8.72411 18.4667 9.15078 18.84V19.38C8.57745 19.14 8.08411 18.7933 7.67078 18.34C7.27078 17.8867 6.93745 17.3733 6.67078 16.8C6.40411 16.2267 6.19078 15.62 6.03078 14.98C5.88411 14.3267 5.77078 13.7 5.69078 13.1C5.62411 12.4867 5.57745 11.92 5.55078 11.4C5.53745 10.8667 5.53078 10.4267 5.53078 10.08C5.53078 9.72 5.53745 9.28 5.55078 8.76C5.57745 8.22667 5.62411 7.66 5.69078 7.06C5.77078 6.46 5.88411 5.84 6.03078 5.2C6.19078 4.56 6.40411 3.96 6.67078 3.4C6.93745 2.82667 7.27078 2.31333 7.67078 1.86C8.08411 1.40667 8.57745 1.05333 9.15078 0.799999V1.38Z" fill="black"/>
</svg>
