<svg width="66" height="24" viewBox="0 0 66 24" fill="none" xmlns="http://www.w3.org/2000/svg">
<g clip-path="url(#clip0_2_310)">
<path d="M27.2393 22.41V8.64487C27.2393 7.42877 27.7115 6.26248 28.5522 5.40257C29.3928 4.54266 30.533 4.05957 31.7218 4.05957L35.6946 4.06524C36.8803 4.06768 38.0167 4.55127 38.8542 5.40988C39.6918 6.26848 40.1621 7.43193 40.1619 8.64487V11.5742C40.1619 12.7903 39.6896 13.9567 38.849 14.8167C38.0084 15.6768 36.8682 16.16 35.6793 16.1602H30.0642" stroke="#939598" stroke-width="0.545336" stroke-linecap="round" stroke-linejoin="round"/>
<path d="M41.2725 4.05884H42.9959C43.4839 4.05884 43.9519 4.25712 44.2969 4.61007C44.642 4.96302 44.8358 5.44171 44.8358 5.94086V16.2225" stroke="#939598" stroke-width="0.545336" stroke-linecap="round" stroke-linejoin="round"/>
<path d="M44.4659 2.46584L43.6845 1.66584C43.6384 1.61873 43.6018 1.56278 43.5769 1.5012C43.5519 1.43961 43.5391 1.3736 43.5391 1.30694C43.5391 1.24028 43.5519 1.17427 43.5769 1.11269C43.6018 1.05111 43.6384 0.995158 43.6845 0.948041L44.4659 0.148749C44.5591 0.0534245 44.6856 -0.00012207 44.8174 -0.00012207C44.9493 -0.00012207 45.0757 0.0534245 45.169 0.148749L45.9497 0.948041C45.9958 0.995158 46.0323 1.05111 46.0573 1.11269C46.0822 1.17427 46.0951 1.24028 46.0951 1.30694C46.0951 1.3736 46.0822 1.43961 46.0573 1.5012C46.0323 1.56278 45.9958 1.61873 45.9497 1.66584L45.1655 2.46584C45.1194 2.51302 45.0646 2.55045 45.0044 2.57598C44.9441 2.60151 44.8795 2.61465 44.8143 2.61465C44.7491 2.61465 44.6845 2.60151 44.6242 2.57598C44.564 2.55045 44.5092 2.51302 44.4631 2.46584" fill="#32BCAD"/>
<path d="M48.1436 4.04956H49.8525C50.7316 4.04919 51.5748 4.40603 52.1966 5.04159L56.1943 9.13087C56.3174 9.25692 56.4635 9.35691 56.6244 9.42513C56.7853 9.49335 56.9577 9.52847 57.1319 9.52847C57.3061 9.52847 57.4785 9.49335 57.6394 9.42513C57.8003 9.35691 57.9464 9.25692 58.0695 9.13087L62.0526 5.05718C62.3604 4.74244 62.7257 4.49283 63.1278 4.32261C63.5299 4.15239 63.9609 4.0649 64.3961 4.06515H65.7857" stroke="#939598" stroke-width="0.545336" stroke-linecap="round" stroke-linejoin="round"/>
<path d="M48.1436 16.1325H49.8525C50.7315 16.1328 51.5747 15.776 52.1966 15.1405L56.1943 11.0512C56.4431 10.797 56.7803 10.6542 57.1319 10.6542C57.4835 10.6542 57.8208 10.797 58.0695 11.0512L62.0526 15.1256C62.6743 15.761 63.5172 16.1179 64.3961 16.1176H65.7857" stroke="#939598" stroke-width="0.545336" stroke-linecap="round" stroke-linejoin="round"/>
<path d="M17.05 18.7444C16.6284 18.746 16.2106 18.6621 15.8209 18.4975C15.4311 18.333 15.0771 18.091 14.7793 17.7857L11.4993 14.4284C11.3833 14.3149 11.229 14.2516 11.0684 14.2516C10.9079 14.2516 10.7536 14.3149 10.6376 14.4284L7.34647 17.7949C7.04884 18.1007 6.69493 18.3431 6.30518 18.5081C5.91543 18.6732 5.49757 18.7576 5.07574 18.7565H4.43359L8.5899 23.008C9.21326 23.6443 10.0579 24.0017 10.9386 24.0017C11.8192 24.0017 12.6638 23.6443 13.2872 23.008L17.4518 18.7473L17.05 18.7444Z" fill="#32BCAD"/>
<path d="M5.07644 6.87976C5.49827 6.87861 5.91614 6.96299 6.30589 7.12804C6.69565 7.29308 7.04956 7.53552 7.34716 7.84132L10.6383 11.2085C10.7527 11.3252 10.9076 11.3907 11.0691 11.3907C11.2307 11.3907 11.3856 11.3252 11.5 11.2085L14.7793 7.85407C15.0767 7.54789 15.4305 7.30516 15.8203 7.13997C16.2101 6.97479 16.6281 6.89043 17.0501 6.89181H17.4449L13.2803 2.63175C12.9719 2.31618 12.6057 2.06585 12.2028 1.89505C11.7998 1.72426 11.3678 1.63635 10.9316 1.63635C10.4954 1.63635 10.0635 1.72426 9.66049 1.89505C9.2575 2.06585 8.89136 2.31618 8.58297 2.63175L4.43359 6.87976H5.07644Z" fill="#32BCAD"/>
<path d="M20.8892 10.4163L18.3726 7.84203C18.3158 7.86576 18.2552 7.87826 18.1938 7.87887H17.0495C16.454 7.8804 15.8831 8.12232 15.4611 8.55203L12.1817 11.9044C11.8864 12.2059 11.4862 12.3753 11.0689 12.3753C10.6516 12.3753 10.2514 12.2059 9.95605 11.9044L6.66426 8.53928C6.2423 8.1093 5.67145 7.86712 5.07586 7.86541H3.67103C3.61313 7.86408 3.55591 7.85232 3.502 7.83069L0.969429 10.4163C0.347392 11.054 -0.00195312 11.918 -0.00195312 12.8188C-0.00195312 13.7196 0.347392 14.5837 0.969429 15.2213L3.49646 17.8062C3.55026 17.7842 3.60754 17.7724 3.66548 17.7715H5.07586C5.67144 17.7697 6.24226 17.5276 6.66426 17.0976L9.95535 13.7311C10.5504 13.1232 11.5874 13.1232 12.1817 13.7311L15.4611 17.0849C15.8831 17.5146 16.454 17.7565 17.0495 17.7581H18.1938C18.2552 17.7585 18.3159 17.771 18.3726 17.7949L20.8892 15.2206C21.1977 14.9051 21.4424 14.5306 21.6094 14.1184C21.7764 13.7062 21.8623 13.2643 21.8623 12.8181C21.8623 12.3719 21.7764 11.9301 21.6094 11.5178C21.4424 11.1056 21.1977 10.7311 20.8892 10.4156" fill="#32BCAD"/>
<path d="M30.6557 21.2401C30.4477 21.2494 30.2413 21.2815 30.0399 21.3357V22.1747C30.1939 22.2299 30.3561 22.2577 30.5193 22.2569C30.9307 22.2569 31.1254 22.1152 31.1254 21.7446C31.1254 21.3959 30.9661 21.2401 30.6557 21.2401ZM29.9014 22.799V21.1387H30.0143L30.0261 21.2096C30.2359 21.1525 30.4508 21.1172 30.6675 21.104C30.8177 21.0932 30.9667 21.1374 31.088 21.2287C31.2265 21.3463 31.2736 21.5362 31.2736 21.7432C31.2736 21.9501 31.2044 22.1641 31.0104 22.2767C30.8624 22.3523 30.6985 22.3895 30.5331 22.3851C30.3659 22.3841 30.1998 22.358 30.0399 22.3079V22.7961L29.9014 22.799Z" fill="#939598"/>
<path d="M32.3051 21.235C31.8943 21.235 31.7107 21.3668 31.7107 21.7374C31.7107 22.0952 31.8915 22.2568 32.3051 22.2568C32.7186 22.2568 32.8974 22.1264 32.8974 21.7565C32.8974 21.3987 32.7166 21.235 32.3051 21.235ZM32.8343 22.2568C32.6958 22.3574 32.5143 22.3865 32.3051 22.3865C32.0959 22.3865 31.9082 22.3553 31.7745 22.2568C31.6242 22.1484 31.5625 21.9734 31.5625 21.7473C31.5625 21.5213 31.6242 21.3456 31.7745 21.235C31.9082 21.1365 32.0917 21.1053 32.3051 21.1053C32.5184 21.1053 32.6979 21.1365 32.8343 21.235C32.9867 21.3456 33.0456 21.5255 33.0456 21.7445C33.0456 21.9635 32.9846 22.1484 32.8343 22.2568Z" fill="#939598"/>
<path d="M34.7809 22.3525L34.3223 21.3456H34.3133L33.8617 22.3525H33.7349L33.25 21.1387H33.4024L33.809 22.1576H33.8187L34.2607 21.1387H34.3874L34.8405 22.1576H34.8502L35.2471 21.1387H35.3974L34.9084 22.3525H34.7809Z" fill="#939598"/>
<path d="M36.2814 21.2323C35.9004 21.2323 35.7715 21.4059 35.748 21.6574H36.8148C36.803 21.3811 36.6644 21.2323 36.2814 21.2323ZM36.2765 22.3866C36.0486 22.3866 35.9004 22.3526 35.7826 22.2519C35.6441 22.1293 35.5977 21.9515 35.5977 21.7474C35.5977 21.5433 35.6607 21.3456 35.8186 21.228C35.9568 21.1391 36.1184 21.0963 36.2814 21.1054C36.4475 21.0952 36.6128 21.1361 36.7559 21.2231C36.927 21.3407 36.9602 21.5476 36.9602 21.7828H35.7445C35.7494 22.033 35.829 22.2541 36.2897 22.2541C36.4956 22.2485 36.7008 22.2248 36.9027 22.1832V22.3107C36.6974 22.3539 36.4888 22.3788 36.2793 22.3851" fill="#939598"/>
<path d="M37.3584 22.3525V21.1387H37.4706L37.4824 21.2096C37.7339 21.1444 37.8516 21.104 38.0726 21.104H38.0892V21.2386H38.056C37.8703 21.2386 37.7574 21.2649 37.4969 21.3343V22.3511L37.3584 22.3525Z" fill="#939598"/>
<path d="M38.8937 21.2323C38.5134 21.2323 38.3838 21.4059 38.3603 21.6574H39.4271C39.4153 21.3811 39.2767 21.2323 38.8937 21.2323ZM38.8888 22.3866C38.6609 22.3866 38.5134 22.3526 38.3956 22.2519C38.2571 22.1293 38.21 21.9515 38.21 21.7474C38.21 21.5433 38.2737 21.3456 38.4309 21.228C38.5691 21.1393 38.7308 21.0965 38.8937 21.1054C39.0598 21.0952 39.2251 21.1361 39.3682 21.2231C39.54 21.3407 39.576 21.5476 39.576 21.7828H38.3554C38.3603 22.033 38.4399 22.2541 38.9006 22.2541C39.1068 22.2485 39.3121 22.2248 39.5143 22.1832V22.3107C39.309 22.3539 39.1004 22.3788 38.8909 22.3851" fill="#939598"/>
<path d="M41.0921 21.3165C40.9381 21.2615 40.7759 21.234 40.6128 21.235C40.2013 21.235 40.0066 21.3768 40.0066 21.7474C40.0066 22.0981 40.1667 22.2519 40.4763 22.2519C40.6842 22.242 40.8905 22.2104 41.0921 22.1576V21.3165ZM41.1185 22.3525L41.106 22.2816C40.8963 22.3393 40.6813 22.3749 40.4645 22.3879C40.3142 22.3995 40.1648 22.355 40.044 22.2625C39.9055 22.1449 39.8584 21.955 39.8584 21.7488C39.8584 21.5319 39.9277 21.3279 40.1216 21.2173C40.2699 21.14 40.4347 21.102 40.601 21.1068C40.7674 21.1091 40.9326 21.1349 41.0921 21.1833V20.6271H41.2307V22.3525H41.1185Z" fill="#939598"/>
<path d="M43.2641 21.24C43.0561 21.2493 42.8497 21.2814 42.6483 21.3357V22.1725C42.802 22.2293 42.9643 22.2579 43.1277 22.2568C43.5391 22.2568 43.7338 22.1151 43.7338 21.7445C43.7338 21.3959 43.5745 21.24 43.2641 21.24ZM43.6188 22.2781C43.471 22.3536 43.3074 22.3908 43.1422 22.3865C42.9615 22.3854 42.7821 22.3545 42.6109 22.2951L42.604 22.3525H42.5098V20.6271H42.6483V21.206C42.8539 21.1522 43.0641 21.1185 43.2759 21.1054C43.4261 21.0946 43.5751 21.1388 43.6964 21.2301C43.8349 21.3477 43.882 21.5376 43.882 21.7445C43.882 21.9514 43.8128 22.1654 43.6188 22.2781Z" fill="#939598"/>
<path d="M44.0654 22.8167V22.6849C44.1346 22.692 44.197 22.6969 44.2413 22.6969C44.4131 22.6969 44.5184 22.6459 44.6126 22.4468L44.6576 22.3504L44.0342 21.1366H44.1949L44.7262 22.1846H44.7352L45.2402 21.1366H45.3981L44.7304 22.4999C44.6084 22.7472 44.4768 22.8287 44.2344 22.8287C44.1771 22.8284 44.12 22.8244 44.0633 22.8167" fill="#939598"/>
<path d="M47.3128 21.6602H46.8528V22.0853H47.3128C47.63 22.0853 47.7499 22.0492 47.7499 21.8728C47.7499 21.6829 47.585 21.6602 47.31 21.6602H47.3128ZM47.2269 20.9743H46.8514V21.4065H47.2296C47.5421 21.4065 47.6668 21.3682 47.6668 21.1883C47.6668 20.9955 47.5088 20.9757 47.2269 20.9757V20.9743ZM47.9418 22.2426C47.772 22.3532 47.5677 22.3574 47.1943 22.3574H46.4912V20.7064H47.1777C47.4998 20.7064 47.6972 20.7107 47.8614 20.812C47.916 20.8453 47.9603 20.8935 47.9895 20.9512C48.0186 21.009 48.0313 21.0739 48.0263 21.1387C48.0263 21.3116 47.957 21.4271 47.772 21.5043V21.5135C47.9799 21.5617 48.1129 21.6701 48.1129 21.9032C48.1181 21.9698 48.1048 22.0365 48.0745 22.0957C48.0442 22.1549 47.9982 22.2041 47.9418 22.2377" fill="#939598"/>
<path d="M49.5179 21.843C49.3793 21.831 49.2408 21.8239 49.0905 21.8239C48.8487 21.8239 48.7635 21.8742 48.7635 21.9876C48.7635 22.101 48.8328 22.1506 49.0198 22.1506C49.1878 22.1449 49.3548 22.1212 49.5179 22.0797V21.843ZM49.5872 22.3525L49.5781 22.2817C49.3681 22.3422 49.1519 22.3779 48.9339 22.3879C48.808 22.3966 48.6824 22.3655 48.5744 22.2987C48.528 22.2588 48.4919 22.2078 48.4695 22.1502C48.447 22.0926 48.4389 22.0302 48.4457 21.9686C48.4526 21.907 48.4742 21.848 48.5088 21.7971C48.5433 21.7461 48.5897 21.7047 48.6437 21.6765C48.7684 21.6163 48.9353 21.6113 49.0884 21.6113C49.2124 21.6113 49.3793 21.6184 49.5179 21.6283V21.6064C49.5179 21.4165 49.396 21.3541 49.0621 21.3541C48.9332 21.3541 48.7753 21.3612 48.625 21.3754V21.1302C48.7919 21.116 48.9803 21.1068 49.1355 21.1068C49.3433 21.1068 49.556 21.1231 49.6897 21.2195C49.8234 21.3158 49.8518 21.4554 49.8518 21.6354V22.3539L49.5872 22.3525Z" fill="#939598"/>
<path d="M51.399 22.3525V21.6829C51.399 21.4618 51.2888 21.3825 51.0914 21.3825C50.9275 21.3899 50.7649 21.4156 50.6065 21.459V22.3533H50.2754V21.1387H50.5455L50.5573 21.216C50.7639 21.1538 50.9768 21.1167 51.1919 21.1054C51.3379 21.0935 51.483 21.138 51.5985 21.2301C51.692 21.3166 51.7273 21.437 51.7273 21.6099V22.3525H51.399Z" fill="#939598"/>
<path d="M52.6648 22.3865C52.5117 22.3865 52.3448 22.3645 52.2229 22.2589C52.0774 22.1385 52.0352 21.9493 52.0352 21.7445C52.0352 21.5525 52.0961 21.3427 52.2769 21.2251C52.4252 21.1266 52.608 21.1053 52.7985 21.1053C52.9371 21.1053 53.0687 21.1146 53.2142 21.1287V21.3888C53.0943 21.3767 52.9509 21.3675 52.8359 21.3675C52.5207 21.3675 52.3725 21.4681 52.3725 21.7473C52.3725 22.0088 52.4833 22.1222 52.7417 22.1222C52.9092 22.1166 53.0759 22.0957 53.2398 22.0598V22.3092C53.0502 22.3544 52.8567 22.3803 52.6621 22.3865" fill="#939598"/>
<path d="M54.2203 21.3597C53.9051 21.3597 53.7666 21.4611 53.7666 21.7374C53.7666 22.0138 53.9051 22.1314 54.2203 22.1314C54.5355 22.1314 54.6692 22.0329 54.6692 21.7565C54.6692 21.4802 54.5355 21.3597 54.2203 21.3597ZM54.7891 22.2589C54.6436 22.3596 54.4531 22.3865 54.2203 22.3865C53.9876 22.3865 53.7929 22.3574 53.6495 22.2589C53.4847 22.1484 53.4258 21.9656 53.4258 21.7473C53.4258 21.5291 53.4847 21.3427 53.6495 21.2322C53.7929 21.1337 53.9827 21.1053 54.2203 21.1053C54.4579 21.1053 54.6436 21.1337 54.7891 21.2322C54.9532 21.3427 55.01 21.5284 55.01 21.7445C55.01 21.9606 54.9511 22.1484 54.7891 22.2589Z" fill="#939598"/>
<path d="M56.9229 22.3866C56.7234 22.3866 56.5073 22.3526 56.3452 22.2158C56.1526 22.0521 56.0938 21.7999 56.0938 21.5285C56.0938 21.2854 56.1693 20.997 56.42 20.8291C56.6154 20.6994 56.8571 20.6725 57.1017 20.6725C57.2804 20.6725 57.4639 20.6845 57.6634 20.7015V20.997C57.4923 20.9828 57.2804 20.9708 57.1162 20.9708C56.6576 20.9708 56.463 21.1487 56.463 21.5285C56.463 21.9083 56.6438 22.0883 56.9818 22.0883C57.2234 22.0797 57.4636 22.0467 57.6988 21.9898V22.2831C57.4441 22.3433 57.1842 22.378 56.9229 22.3866Z" fill="#939598"/>
<path d="M58.673 21.3215C58.3959 21.3215 58.292 21.4228 58.2705 21.605H59.0699C59.0602 21.408 58.9473 21.3215 58.673 21.3215ZM58.6231 22.3844C58.4284 22.3844 58.2518 22.3603 58.1202 22.2498C57.9886 22.1392 57.9297 21.9493 57.9297 21.7424C57.9297 21.5575 57.9886 21.3506 58.1534 21.2301C58.2989 21.1245 58.4846 21.1033 58.673 21.1033C58.842 21.1033 59.0415 21.1224 59.187 21.2259C59.3775 21.3626 59.3948 21.5745 59.3948 21.8239H58.2684C58.2754 22.0096 58.3716 22.1293 58.7055 22.1293C58.9176 22.1246 59.129 22.1037 59.338 22.067V22.305C59.1021 22.3509 58.8631 22.3774 58.6231 22.3844Z" fill="#939598"/>
<path d="M60.8697 22.3525V21.6829C60.8697 21.4618 60.7595 21.3825 60.5621 21.3825C60.3982 21.3899 60.2357 21.4156 60.0772 21.459V22.3533H59.7461V21.1387H60.0163L60.028 21.216C60.2346 21.1538 60.4475 21.1167 60.6626 21.1054C60.8086 21.0935 60.9537 21.138 61.0692 21.2301C61.1627 21.3166 61.198 21.437 61.198 21.6099V22.3525H60.8697Z" fill="#939598"/>
<path d="M62.1438 22.3866C61.9837 22.3866 61.8383 22.3405 61.7586 22.213C61.6933 22.1027 61.6628 21.9745 61.6713 21.8459V21.391H61.4316V21.1388H61.6713L61.7067 20.771H61.999V21.1388H62.4666V21.391H61.999V21.7807C61.9946 21.8592 62.0056 21.9378 62.0315 22.0117C62.0669 22.0932 62.1444 22.1244 62.2483 22.1244C62.3278 22.1229 62.4071 22.1149 62.4853 22.1003V22.3434C62.3725 22.3683 62.2577 22.3828 62.1424 22.3866" fill="#939598"/>
<path d="M62.791 22.3525V21.1387H63.0612L63.073 21.2159C63.2625 21.1501 63.4604 21.1128 63.6604 21.1054C63.6744 21.1045 63.6886 21.1045 63.7026 21.1054V21.3994C63.6652 21.3994 63.6202 21.3994 63.5876 21.3994C63.4305 21.4001 63.2741 21.421 63.1221 21.4618V22.3582L62.791 22.3525Z" fill="#939598"/>
<path d="M64.9084 21.843C64.7698 21.831 64.6313 21.8239 64.4803 21.8239C64.2385 21.8239 64.154 21.8742 64.154 21.9876C64.154 22.101 64.2233 22.1506 64.4096 22.1506C64.5778 22.1449 64.745 22.1212 64.9084 22.0797V21.843ZM64.9776 22.3525L64.9679 22.2817C64.7579 22.3422 64.5417 22.3779 64.3237 22.3879C64.1978 22.3966 64.0722 22.3655 63.9642 22.2987C63.9205 22.2644 63.8857 22.2198 63.8628 22.1687C63.8398 22.1176 63.8295 22.0615 63.8326 22.0053C63.8294 21.9362 63.8468 21.8677 63.8826 21.809C63.9183 21.7503 63.9707 21.7041 64.0328 21.6765C64.1575 21.6163 64.3237 21.6113 64.4768 21.6113C64.6015 21.6113 64.7684 21.6184 64.907 21.6283V21.6064C64.907 21.4165 64.7844 21.3541 64.4512 21.3541C64.3216 21.3541 64.1644 21.3612 64.0141 21.3754V21.1302C64.181 21.116 64.3687 21.1068 64.5239 21.1068C64.7317 21.1068 64.9444 21.1231 65.0781 21.2195C65.2118 21.3158 65.2402 21.4554 65.2402 21.6354V22.3539L64.9776 22.3525Z" fill="#939598"/>
<path d="M65.6641 20.6271H65.9959V22.3525H65.6641V20.6271Z" fill="#939598"/>
</g>
<defs>
<clipPath id="clip0_2_310">
<rect width="66" height="24" fill="white"/>
</clipPath>
</defs>
</svg>
